# xmcd
#
# Track frame offsets:
#	150
#	33831
#	53698
#	63590
#	77697
#	119020
#	142788
#	171788
#	196225
#	229300
#
# Disc length: 3545 seconds
#
# Revision: 1
# Processed by: cddbd v1.5.2PL0 Copyright (c) Steve Scherf et al.
# Submitted via: audiograbber 1.83.01
#
DISCID=810dd70a
DTITLE=B.B. King and B.B. King Bluesband - Live At Beethovenhalle Bonn - CD1
DYEAR=1994
DGENRE=Blues
TTITLE0=Six Pack
TTITLE1=Blues Improvisation
TTITLE2=B.B. King Introduction
TTITLE3=Let The Good Times Roll
TTITLE4=Stormy Monday
TTITLE5=Playing With My Friend
TTITLE6=Darling You Know I Love You
TTITLE7=Ain´t Nobody Home
TTITLE8=Nightlife
TTITLE9=We´re Gonna Make It
EXTD=
EXTT0=
EXTT1=
EXTT2=
EXTT3=
EXTT4=
EXTT5=
EXTT6=
EXTT7=
EXTT8=
EXTT9=
PLAYORDER=
